<svg id="svg" fill="#000000" stroke="#000000" width="200px" height="200px" version="1.1" viewBox="144 144 512 512" xmlns="http://www.w3.org/2000/svg">
    <g id="IconSvg_bgCarrier" stroke-width="0"></g>
    <g id="IconSvg_tracerCarrier" stroke-linecap="round" stroke-linejoin="round" stroke="#CCCCCC"></g>
     <g id="IconSvg_iconCarrier">
      <defs xmlns="http://www.w3.org/2000/svg">
  <clipPath id="a">
   <path d="m148.09 214h503.81v373h-503.81z"></path>
  </clipPath>
 </defs>
<path xmlns="http://www.w3.org/2000/svg" d="m371.58 324.66c5.2188 3.9922 11.609 6.1523 18.184 6.1406 5.9336-0.015626 11.738-1.7656 16.688-5.0391 3.4102-2.3086 6.3516-5.25 8.6602-8.6602 0.47266-0.70703 0.86719-1.4961 1.3398-2.3633l0.70703-1.3398v-0.94531 0.003907c2.6641-6.1602 3.1641-13.043 1.418-19.523v-0.86719l-56.051 21.336 0.39453 0.78906c2.0312 4.1133 4.9961 7.6992 8.6602 10.469z"></path>
<path xmlns="http://www.w3.org/2000/svg" d="m434.48 300.73c0.027344 2.2188-0.15625 4.4336-0.55078 6.6133v0.94531h170.75v-0.94531c-3.1484-26.23-11.156-51.645-23.617-74.941v-1.1797l-148.7 55.734v0.78906-0.003906c1.3398 4.2031 2.0586 8.5781 2.125 12.988z"></path>
<path xmlns="http://www.w3.org/2000/svg" d="m557.83 468.48c31.27-37.961 48.406-85.59 48.492-134.77v-10.078-0.70703h-177.28l-0.70703 0.39453v0.47266h-0.003906c-0.23047 0.4375-0.49609 0.85938-0.78516 1.2617-1.6406 2.5-3.5391 4.8242-5.668 6.9258l-0.62891 0.55078 136.18 136.66z"></path>
<path xmlns="http://www.w3.org/2000/svg" d="m226.81 459.82 0.55078 0.78906 129.65-129.57-0.47266-0.55078h0.003906c-3.0312-3.4375-5.5273-7.3125-7.4023-11.492v-0.70703l-159.17 59.668v0.70703c6.2656 29.402 18.832 57.094 36.84 81.16z"></path>
<path xmlns="http://www.w3.org/2000/svg" d="m368.51 340.09-131.86 131.93 0.47266 0.62891c35.98 41.566 86.891 67.277 141.7 71.559h0.86719l-0.003906-200.11h-0.62891c-3.3125-0.77344-6.5117-1.9648-9.5234-3.5391z"></path>
<g xmlns="http://www.w3.org/2000/svg" clip-path="url(#a)">
  <path d="m625.69 215.16v-0.62891l-31.488 11.73 0.47266 0.86719v-0.003906c13.914 26.305 22.652 55.031 25.742 84.625l0.55078 6.6133c0 5.0391 0.47266 10.234 0.47266 15.352v-0.003906c-0.023438 55.336-20.328 108.75-57.07 150.12l-1.5742 1.7305c-21.066 23.25-46.762 41.844-75.43 54.586-28.672 12.742-59.691 19.355-91.066 19.41h-9.1328v0.78906l-1.1016-0.86719h0.003906c-49.316-2.2305-96.539-20.582-134.42-52.234-37.879-31.652-64.332-74.863-75.289-123v-0.86719l-28.262 10.234v0.71094c15.656 60.426 52.852 113.05 104.59 147.97 51.738 34.926 114.45 49.742 176.35 41.668 61.898-8.0781 118.71-38.488 159.76-85.52 41.043-47.027 63.488-107.43 63.117-169.86-0.011719-39.309-8.9766-78.102-26.215-113.43z"></path>
 </g>
<path xmlns="http://www.w3.org/2000/svg" d="m408.5 341.35c-4.3633 1.9805-9.0117 3.2578-13.777 3.7773h-0.70703v199.79h1.8125c28.223 0.078125 56.168-5.582 82.137-16.637 25.969-11.059 49.418-27.277 68.926-47.676l0.55078-0.55078-138.47-138.94z"></path>

      </g>
      </svg>